<svg width="165" height="20" viewBox="0 0 165 20" fill="none" xmlns="http://www.w3.org/2000/svg">
<path d="M8.49634 14.4478H4.97998L9.37543 19.1876H13.1262L8.49634 14.4478Z" fill="#655615"/>
<path d="M13.8906 4.79689H16.6451V19.1304H13.8906V4.79689ZM20.9233 7.53795C20.5131 7.36664 20.1029 7.30953 19.5754 7.30953C18.6377 7.30953 17.9344 7.53795 17.4656 8.0519C16.9381 8.56585 16.7037 9.25112 16.7037 10.1077L16.4107 7.36664C16.8795 6.51005 17.4656 5.82479 18.1689 5.36794C18.8721 4.9111 19.6926 4.68268 20.5717 4.68268C21.2164 4.68268 21.861 4.79689 22.3885 4.96821C22.916 5.13952 23.3848 5.42505 23.795 5.82479L21.9197 8.33743C21.6266 7.93769 21.275 7.70927 20.9233 7.53795Z" fill="#655615"/>
<path d="M154.309 4.79689H157.063V19.1304H154.309V4.79689ZM161.283 7.53795C160.872 7.36664 160.462 7.30953 159.935 7.30953C158.997 7.30953 158.294 7.53795 157.825 8.0519C157.298 8.56585 157.063 9.25112 157.063 10.1077L156.77 7.36664C157.239 6.51005 157.825 5.82479 158.528 5.36794C159.231 4.9111 160.052 4.68268 160.931 4.68268C161.576 4.68268 162.22 4.79689 162.748 4.96821C163.275 5.13952 163.744 5.42505 164.154 5.82479L162.279 8.33743C161.986 7.93769 161.693 7.70927 161.283 7.53795Z" fill="#655615"/>
<path d="M34.048 16.6175C31.0591 16.6175 29.1251 14.5617 29.1251 11.7635C29.1251 8.96535 31.1177 6.90955 34.048 6.90955C36.275 6.90955 37.9746 8.05167 38.6779 9.82194H41.491C40.7291 6.62403 37.916 4.39691 34.1066 4.39691C29.5939 4.39691 26.3706 7.53771 26.3706 11.7635C26.3706 15.9893 29.5939 19.1301 34.1066 19.1301C36.5681 19.1301 38.6779 18.1593 40.0258 16.6175L36.8025 15.9322C35.982 16.3891 35.1029 16.6175 34.048 16.6175Z" fill="#655615"/>
<path d="M42.1353 12.1063V4.79681H44.8897V12.1063C44.8897 15.1329 46.5893 16.6748 49.2266 16.6748C51.8639 16.6748 53.5634 15.1329 53.5634 12.1063V4.79681H56.3179V12.1063C56.3179 16.7319 53.4462 19.1303 49.2266 19.1303C45.0069 19.1303 42.1353 16.7319 42.1353 12.1063Z" fill="#655615"/>
<path d="M57.022 14.7333H59.8351C59.8937 15.8755 61.0072 16.732 62.9998 16.732C65.1096 16.732 66.1645 15.8755 66.1645 14.7333C66.1645 13.4199 64.6408 13.2486 62.8826 13.0202C60.3625 12.7346 57.3736 12.2778 57.3736 9.0799C57.3736 6.33883 59.6006 4.45435 62.9998 4.45435C66.3989 4.45435 68.5674 6.33883 68.626 8.73726H65.8715C65.8129 7.65226 64.758 6.85278 62.9998 6.85278C61.183 6.85278 60.1281 7.70936 60.1281 8.79437C60.1281 10.1078 61.6519 10.2791 63.41 10.5075C65.9301 10.7931 68.9776 11.2499 68.9776 14.4478C68.9776 17.3031 66.6334 19.1305 62.9998 19.1305C59.4248 19.1305 57.1392 17.246 57.022 14.7333Z" fill="#655615"/>
<path d="M96.9941 11.0784C96.9941 6.79551 99.5728 4.79681 102.913 4.79681C105.14 4.79681 106.957 5.76761 107.953 7.59498C108.95 5.76761 110.767 4.79681 112.994 4.79681C116.334 4.79681 118.913 6.79551 118.913 11.0784V19.1874H116.158V11.0784C116.158 8.45157 114.752 7.30946 112.759 7.30946C110.825 7.30946 109.36 8.50867 109.36 11.0784V19.1874H106.606V11.0784C106.606 8.50867 105.14 7.30946 103.206 7.30946C101.214 7.30946 99.8072 8.45157 99.8072 11.0784V19.1874H97.0528V11.0784H96.9941Z" fill="#655615"/>
<path d="M121.43 1.88454C121.43 0.799538 122.25 6.10352e-05 123.364 6.10352e-05C124.477 6.10352e-05 125.298 0.799538 125.298 1.88454C125.298 2.96955 124.477 3.76903 123.364 3.76903C122.25 3.82613 121.43 2.96955 121.43 1.88454Z" fill="#655615"/>
<path d="M123.07 5.19672H120.316V19.1876H123.07V5.19672Z" fill="#655615"/>
<path d="M124.479 16.9605L133.68 7.59515H124.889V5.19672H137.372V7.42383L128.112 16.7891H137.665V19.1876H124.479V16.9605Z" fill="#655615"/>
<path d="M145.399 12.7343H153.193V11.7635C153.193 7.53771 150.028 4.39691 145.516 4.39691C141.003 4.39691 137.78 7.53771 137.78 11.7635C137.78 15.9893 141.003 19.1301 145.516 19.1301C148.856 19.1301 151.494 17.4741 152.549 14.8472H149.501C148.681 16.0464 147.333 16.6175 145.516 16.6175C143.406 16.6175 141.706 15.6467 141.003 13.8193C140.945 13.648 140.827 13.4196 140.827 13.1912V13.1341C140.71 12.7343 140.593 12.2204 140.651 11.5922C140.651 11.0783 140.769 10.6785 140.827 10.2788V10.2217C140.827 10.1646 140.886 10.1075 140.886 10.0504C141.531 7.99456 143.289 6.85245 145.574 6.85245C147.919 6.85245 149.794 8.05167 150.321 10.2788H145.399V12.7343Z" fill="#655615"/>
<path d="M77.8269 4.79688H74.3105V7.25241H77.8269V4.79688Z" fill="#655615"/>
<path d="M74.4874 19.1304C74.253 19.1304 74.0772 19.0733 73.8428 19.0733C73.7842 19.0733 73.7842 19.0733 73.7256 19.0733H73.667H73.6083C70.9125 18.6164 69.2129 16.7891 69.2129 13.534V0.228455H71.9674V4.7969V7.25243V13.4769C71.9674 15.2472 72.7293 16.218 74.0186 16.5606C74.0772 16.5606 74.1944 16.6177 74.253 16.6177C74.3116 16.6177 74.3116 16.6177 74.3702 16.6177C75.1907 16.732 76.3628 16.732 77.1833 16.5606C78.121 16.3893 78.8829 15.8183 79.4103 15.0759C79.5275 14.9046 79.6448 14.6762 79.762 14.5048C79.8792 14.2764 79.9378 14.1051 80.055 13.8767C80.1136 13.6483 80.2308 13.4769 80.2894 13.2485C80.4066 12.963 80.4652 12.6775 80.5825 12.3919C80.6411 12.2206 80.6997 12.0493 80.7583 11.878C80.8169 11.5925 80.8755 11.2498 80.9341 10.9643C81.1685 9.76508 81.3443 9.02271 81.7546 8.16612C82.9267 5.8819 85.4468 4.51137 88.5529 4.51137C91.2488 4.51137 93.4758 5.59637 94.8237 7.36664C94.8823 7.42375 94.9409 7.48086 94.9409 7.53796C94.9995 7.59507 95.0581 7.70928 95.1168 7.76638C95.1168 7.76638 95.1168 7.82349 95.1754 7.82349C95.1754 7.82349 95.1754 7.88059 95.234 7.88059C95.527 8.33744 95.7614 8.85139 95.9372 9.36534C96.1717 10.1077 96.3475 10.9643 96.3475 11.8209C96.3475 16.0467 93.1242 19.1875 88.6115 19.1875C86.5603 19.1875 84.7435 18.5593 83.4542 17.4172L84.1574 15.5327L84.216 15.4185C84.3333 15.133 84.3919 14.9046 84.5091 14.619C85.3296 15.8754 86.7947 16.6748 88.6701 16.6748C91.6004 16.6748 93.593 14.619 93.593 11.8209C93.593 11.4782 93.5344 11.1356 93.4758 10.793C93.3586 10.2219 93.1828 9.65087 92.8897 9.19402C92.4209 8.33744 91.659 7.70928 90.7213 7.30954C90.0766 7.02401 89.3734 6.9098 88.6115 6.9098C86.5017 6.9098 84.8607 7.9377 84.1574 9.59376C83.923 10.0506 83.923 10.3932 83.7472 11.1356C83.7472 11.1927 83.6886 11.2498 83.6886 11.2498C83.6886 11.3069 83.63 11.4211 83.63 11.4782C83.4542 11.9922 83.3369 12.5632 83.1611 13.1343C82.9853 13.7054 82.8095 14.2764 82.5751 14.8475L82.5165 15.0759L82.4579 15.2472C82.3993 15.4185 82.2234 15.7041 82.1648 15.8754C82.1648 15.8754 82.1648 15.9325 82.1062 15.9325C81.9304 16.218 81.7546 16.4464 81.5788 16.6748C81.1099 17.2459 80.5825 17.7599 79.9378 18.2167C79.2931 18.6735 78.0624 19.0733 77.3005 19.1875C76.2456 19.2446 75.3079 19.1875 74.4874 19.1304Z" fill="#655615"/>
<path d="M12.8347 5.19672L6.21224 11.9352L2.75448 15.4757V19.1876H0V0.285645H2.75448V11.5925L9.14254 5.19672H12.8347Z" fill="#655615"/>
</svg>
