<svg width="21" height="21" viewBox="0 0 21 21" fill="none" xmlns="http://www.w3.org/2000/svg">
<path d="M15.532 0.850835C14.4057 -0.283612 12.5086 -0.283612 11.323 0.850835L5.92825 6.28423V3.11973C5.92825 2.28382 5.57256 1.56733 5.03902 1.02996C4.50547 0.492589 3.7348 0.134343 2.96413 0.134343C1.3635 0.134343 0 1.56733 0 3.17944V12.255V13.4492C0 15.0613 1.24493 16.4345 2.84556 16.4942C3.49767 16.4942 4.14978 16.3151 4.62404 15.9569C4.86117 15.7778 5.0983 15.5986 5.27615 15.3598C5.39471 15.2404 5.45399 15.121 5.57256 15.0016L15.532 4.97067C16.1248 4.37359 16.4213 3.6571 16.4213 2.8809C16.4213 2.22411 16.1248 1.44791 15.532 0.850835Z" fill="#FDE105"/>
<path d="M20.6871 3.00031C20.6871 3.77651 20.3907 4.55271 19.7979 5.09008L14.581 10.3444L12.5061 12.4341C11.3798 13.5686 9.54201 13.5686 8.35636 12.4938L8.29708 12.4341L8.23779 12.3744L12.9804 7.59781L15.5295 5.03037C16.1224 4.4333 16.4188 3.7168 16.4188 2.9406C16.4188 2.22411 16.1224 1.44791 15.5888 0.910543L15.6481 0.850835C16.7745 -0.283612 18.6715 -0.283612 19.8572 0.850835C20.3907 1.44791 20.6871 2.22411 20.6871 3.00031Z" fill="#FEB002"/>
<path opacity="0.6" d="M16.4226 2.94064C16.4226 2.22415 16.1262 1.44795 15.5926 0.910583L8.36015 8.25463C7.23378 9.38908 7.23378 11.24 8.30087 12.4342L15.5926 5.09012C16.1262 4.49305 16.4226 3.71685 16.4226 2.94064Z" fill="#FEB002"/>
<path d="M8.0637 15.8376C8.0637 16.6138 7.76729 17.39 7.17446 17.9274L5.81096 19.3007C4.6846 20.4351 2.78755 20.5545 1.6019 19.4201C0.594099 18.4648 0.416252 17.0318 1.06836 15.8376C1.6019 16.2556 2.25401 16.5541 2.9654 16.5541C3.55823 16.5541 4.15105 16.375 4.62531 16.0167C4.86244 15.8376 5.09957 15.6585 5.27742 15.4197C5.39599 15.3003 5.45527 15.1808 5.57383 15.0614L7.0559 13.5687C7.11518 13.6284 7.17446 13.6284 7.17446 13.6881C7.76729 14.2852 8.0637 15.0614 8.0637 15.8376Z" fill="#FDE105"/>
<path opacity="0.6" d="M3.02204 13.7477L1.59926 15.1807C1.42141 15.3598 1.24357 15.5987 1.125 15.8375C1.65854 16.2554 2.31065 16.554 3.02204 16.554C3.61487 16.554 4.20769 16.3749 4.68195 16.0166C4.91908 15.8375 5.15621 15.6584 5.33406 15.4195L5.92689 14.7627L7.11254 13.5686C5.92689 12.5536 4.14841 12.6133 3.02204 13.7477Z" fill="#FEB002"/>
<path d="M19.8572 19.8379C18.7308 20.9724 16.8338 20.9724 15.6481 19.8379L8.35636 12.4342L8.29708 12.3745C8.29708 12.3745 8.29708 12.3745 8.23779 12.3148C8.23779 12.3148 8.23779 12.3148 8.29708 12.3745L12.4469 8.19495L12.5061 8.25465L19.8572 15.6584C20.9835 16.7929 20.9835 18.7035 19.8572 19.8379Z" fill="#FEB002"/>
</svg>
